<svg width="24" height="24" viewBox="0 0 24 24" fill="none" xmlns="http://www.w3.org/2000/svg">
<path fill-rule="evenodd" clip-rule="evenodd" d="M9.559 21.4562C5.887 21.4562 2.75 20.9012 2.75 18.6772C2.75 16.4532 5.867 14.4492 9.559 14.4492C13.231 14.4492 16.367 16.4342 16.367 18.6572C16.367 20.8802 13.251 21.4562 9.559 21.4562Z" stroke="white" stroke-width="1.5" stroke-linecap="round" stroke-linejoin="round"/>
<path fill-rule="evenodd" clip-rule="evenodd" d="M9.55934 11.2776C11.9693 11.2776 13.9233 9.32356 13.9233 6.91356C13.9233 4.50356 11.9693 2.54956 9.55934 2.54956C7.14934 2.54956 5.19534 4.50356 5.19534 6.91356C5.18634 9.31556 7.12734 11.2696 9.52834 11.2776H9.55934Z" stroke="white" stroke-width="1.5" stroke-linecap="round" stroke-linejoin="round"/>
<path d="M16.8022 10.0789C18.2052 9.70388 19.2392 8.42488 19.2392 6.90288C19.2402 5.31488 18.1132 3.98888 16.6152 3.68188" stroke="white" stroke-width="1.5" stroke-linecap="round" stroke-linejoin="round"/>
<path d="M17.4609 13.6536C19.4489 13.6536 21.1469 15.0016 21.1469 16.2046C21.1469 16.9136 20.5619 17.6416 19.6719 17.8506" stroke="white" stroke-width="1.5" stroke-linecap="round" stroke-linejoin="round"/>
</svg>
