<svg width="24" height="24" viewBox="0 0 24 24" fill="none" xmlns="http://www.w3.org/2000/svg">
<path d="M6.91602 14.854L9.90902 10.965L13.323 13.645L16.252 9.86499" stroke="white" stroke-width="1.5" stroke-linecap="round" stroke-linejoin="round"/>
<path fill-rule="evenodd" clip-rule="evenodd" d="M19.6661 2.3501C20.7281 2.3501 21.5881 3.2101 21.5881 4.2721C21.5881 5.3331 20.7281 6.1941 19.6661 6.1941C18.6041 6.1941 17.7441 5.3331 17.7441 4.2721C17.7441 3.2101 18.6041 2.3501 19.6661 2.3501Z" stroke="white" stroke-width="1.5" stroke-linecap="round" stroke-linejoin="round"/>
<path d="M20.7552 9.26898C20.8882 10.164 20.9492 11.172 20.9492 12.303C20.9492 19.241 18.6372 21.553 11.6992 21.553C4.76222 21.553 2.44922 19.241 2.44922 12.303C2.44922 5.36598 4.76222 3.05298 11.6992 3.05298C12.8092 3.05298 13.8002 3.11198 14.6822 3.23998" stroke="white" stroke-width="1.5" stroke-linecap="round" stroke-linejoin="round"/>
</svg>
