<svg width="24" height="24" viewBox="0 0 24 24" fill="none" xmlns="http://www.w3.org/2000/svg">
<path fill-rule="evenodd" clip-rule="evenodd" d="M9.92161 21.8083C6.10761 21.8083 2.84961 21.2313 2.84961 18.9213C2.84961 16.6113 6.08661 14.5103 9.92161 14.5103C13.7356 14.5103 16.9936 16.5913 16.9936 18.9003C16.9936 21.2093 13.7566 21.8083 9.92161 21.8083Z" stroke="white" stroke-width="1.5" stroke-linecap="round" stroke-linejoin="round"/>
<path fill-rule="evenodd" clip-rule="evenodd" d="M9.9217 11.2159C12.4247 11.2159 14.4547 9.1859 14.4547 6.6829C14.4547 4.1789 12.4247 2.1499 9.9217 2.1499C7.4187 2.1499 5.3887 4.1789 5.3887 6.6829C5.3797 9.1769 7.3957 11.2069 9.8897 11.2159H9.9217Z" stroke="white" stroke-width="1.5" stroke-linecap="round" stroke-linejoin="round"/>
<path d="M19.1309 8.12891V12.1389" stroke="white" stroke-width="1.5" stroke-linecap="round" stroke-linejoin="round"/>
<path d="M21.1759 10.1338H17.0859" stroke="white" stroke-width="1.5" stroke-linecap="round" stroke-linejoin="round"/>
</svg>
