<svg width="24" height="24" viewBox="0 0 24 24" fill="none" xmlns="http://www.w3.org/2000/svg">
<path d="M5.69439 6.43034C15.5428 5.0931 17.9698 5.25722 19.5002 7C21.0307 8.74278 20.6724 14.4881 18.8834 16.0871C17.0954 17.6861 9.33039 17.8381 6.87039 16.0871C4.27139 14.2361 5.77939 8.5421 5.69439 5.0931C5.74539 3.1631 3.65039 2.8501 3.65039 2.8501" stroke="white" stroke-width="1.5" stroke-linecap="round" stroke-linejoin="round"/>
<path d="M14.1562 10.7197H16.9293" stroke="white" stroke-width="1.5" stroke-linecap="round" stroke-linejoin="round"/>
<path fill-rule="evenodd" clip-rule="evenodd" d="M7.26375 20.1274C7.56375 20.1274 7.80775 20.3714 7.80775 20.6714C7.80775 20.9724 7.56375 21.2164 7.26375 21.2164C6.96275 21.2164 6.71875 20.9724 6.71875 20.6714C6.71875 20.3714 6.96275 20.1274 7.26375 20.1274Z" fill="white" stroke="white" stroke-width="1.5" stroke-linecap="round" stroke-linejoin="round"/>
<path fill-rule="evenodd" clip-rule="evenodd" d="M17.5948 20.1274C17.8958 20.1274 18.1398 20.3714 18.1398 20.6714C18.1398 20.9724 17.8958 21.2164 17.5948 21.2164C17.2948 21.2164 17.0508 20.9724 17.0508 20.6714C17.0508 20.3714 17.2948 20.1274 17.5948 20.1274Z" fill="white" stroke="white" stroke-width="1.5" stroke-linecap="round" stroke-linejoin="round"/>
</svg>
