<svg width="24" height="24" viewBox="0 0 24 24" fill="none" xmlns="http://www.w3.org/2000/svg">
<path fill-rule="evenodd" clip-rule="evenodd" d="M15.437 12.4983C15.437 10.7614 14.0286 9.35303 12.2917 9.35303C10.5549 9.35303 9.14648 10.7614 9.14648 12.4983C9.14648 14.2351 10.5549 15.6436 12.2917 15.6436C14.0286 15.6436 15.437 14.2351 15.437 12.4983Z" stroke="white" stroke-width="1.5" stroke-linecap="round" stroke-linejoin="round"/>
<path fill-rule="evenodd" clip-rule="evenodd" d="M12.2922 20.2002C20.3375 20.2002 21.2954 17.7897 21.2954 12.5665C21.2954 8.90545 20.8112 6.94651 17.7617 6.1044C17.4817 6.01598 17.1712 5.84756 16.9196 5.57072C16.5133 5.12545 16.2164 3.75809 15.2354 3.3444C14.2543 2.93177 10.3143 2.95072 9.34906 3.3444C8.38485 3.73914 8.07117 5.12545 7.66485 5.57072C7.41327 5.84756 7.1038 6.01598 6.82275 6.1044C3.77327 6.94651 3.28906 8.90545 3.28906 12.5665C3.28906 17.7897 4.24696 20.2002 12.2922 20.2002Z" stroke="white" stroke-width="1.5" stroke-linecap="round" stroke-linejoin="round"/>
<path d="M17.2045 9H17.2135" stroke="white" stroke-width="1.5" stroke-linecap="round" stroke-linejoin="round"/>
</svg>
