<svg width="16" height="16" viewBox="0 0 16 16" fill="none" xmlns="http://www.w3.org/2000/svg">
<path d="M2.96878 3.53065C2.82789 3.38976 2.74873 3.19866 2.74873 2.9994C2.74873 2.80015 2.82789 2.60905 2.96879 2.46815C3.10968 2.32726 3.30078 2.2481 3.50004 2.2481C3.69929 2.2481 3.89039 2.32726 4.03128 2.46815L9.03128 7.46815C9.1012 7.53783 9.15668 7.62063 9.19454 7.71179C9.23239 7.80295 9.25188 7.90069 9.25188 7.9994C9.25188 8.09811 9.23239 8.19585 9.19454 8.28702C9.15668 8.37818 9.1012 8.46098 9.03128 8.53065L4.03128 13.5307C3.89039 13.6715 3.69929 13.7507 3.50003 13.7507C3.30078 13.7507 3.10968 13.6715 2.96878 13.5307C2.82789 13.3898 2.74873 13.1987 2.74873 12.9994C2.74873 12.8001 2.82789 12.609 2.96878 12.4682L7.43691 8.00003L2.96878 3.53065ZM12.4369 8.00003L7.96691 12.4694C7.82601 12.6103 7.74686 12.8014 7.74686 13.0007C7.74686 13.1999 7.82601 13.391 7.96691 13.5319C8.10781 13.6728 8.2989 13.752 8.49816 13.752C8.69742 13.752 8.88851 13.6728 9.02941 13.5319L14.0294 8.5319C14.0993 8.46223 14.1548 8.37943 14.1927 8.28827C14.2305 8.1971 14.25 8.09936 14.25 8.00065C14.25 7.90194 14.2305 7.8042 14.1927 7.71304C14.1548 7.62188 14.0993 7.53908 14.0294 7.4694L9.02941 2.4694C8.95965 2.39964 8.87682 2.3443 8.78567 2.30654C8.69452 2.26879 8.59682 2.24935 8.49816 2.24935C8.3995 2.24935 8.3018 2.26879 8.21065 2.30654C8.1195 2.3443 8.03667 2.39964 7.96691 2.4694C7.89715 2.53917 7.84181 2.62199 7.80405 2.71314C7.76629 2.8043 7.74686 2.90199 7.74686 3.00065C7.74686 3.09932 7.76629 3.19701 7.80405 3.28816C7.84181 3.37932 7.89714 3.46214 7.96691 3.5319L12.4369 8.00003Z" fill="#353535"/>
</svg>
