<svg width="18" height="18" viewBox="0 0 18 18" fill="none" xmlns="http://www.w3.org/2000/svg">
<path d="M7.14797 2.97708L12.773 8.60208C12.8253 8.65432 12.8668 8.71636 12.8951 8.78464C12.9234 8.85293 12.9379 8.92612 12.9379 9.00005C12.9379 9.07397 12.9234 9.14716 12.8951 9.21545C12.8668 9.28374 12.8253 9.34577 12.773 9.39801L7.14797 15.023C7.0693 15.1018 6.96903 15.1554 6.85986 15.1772C6.75069 15.1989 6.63752 15.1878 6.53468 15.1451C6.43184 15.1025 6.34396 15.0304 6.28216 14.9378C6.22036 14.8452 6.18741 14.7364 6.1875 14.625L6.1875 3.37505C6.18741 3.26373 6.22036 3.15489 6.28216 3.06231C6.34396 2.96972 6.43184 2.89756 6.53468 2.85495C6.63752 2.81234 6.75069 2.80119 6.85986 2.82294C6.96903 2.84468 7.0693 2.89832 7.14797 2.97708Z" fill="#353535"/>
</svg>
