<svg width="24" height="24" viewBox="0 0 24 24" fill="none" xmlns="http://www.w3.org/2000/svg">
<path d="M12 2.75C5.063 2.75 2.75 5.063 2.75 12C2.75 18.937 5.063 21.25 12 21.25C18.937 21.25 21.25 18.937 21.25 12" stroke="white" stroke-width="1.5" stroke-linecap="round" stroke-linejoin="round"/>
<path fill-rule="evenodd" clip-rule="evenodd" d="M19.528 4.30364V4.30364C18.535 3.42464 17.018 3.51664 16.139 4.50964C16.139 4.50964 11.77 9.44464 10.255 11.1576C8.73804 12.8696 9.85004 15.2346 9.85004 15.2346C9.85004 15.2346 12.354 16.0276 13.848 14.3396C15.343 12.6516 19.734 7.69264 19.734 7.69264C20.613 6.69964 20.52 5.18264 19.528 4.30364Z" stroke="white" stroke-width="1.5" stroke-linecap="round" stroke-linejoin="round"/>
<path d="M15.0098 5.80078L18.6048 8.98378" stroke="white" stroke-width="1.5" stroke-linecap="round" stroke-linejoin="round"/>
</svg>
