<svg width="24" height="24" viewBox="0 0 24 24" fill="none" xmlns="http://www.w3.org/2000/svg">
<path d="M11.1424 17.8829H4.66992" stroke="white" stroke-width="1.5" stroke-linecap="round" stroke-linejoin="round"/>
<path fill-rule="evenodd" clip-rule="evenodd" d="M15.2051 17.8839C15.2051 19.9257 15.886 20.6057 17.9269 20.6057C19.9678 20.6057 20.6487 19.9257 20.6487 17.8839C20.6487 15.8421 19.9678 15.1621 17.9269 15.1621C15.886 15.1621 15.2051 15.8421 15.2051 17.8839Z" stroke="white" stroke-width="1.5" stroke-linecap="round" stroke-linejoin="round"/>
<path d="M14.1758 7.39439H20.6474" stroke="white" stroke-width="1.5" stroke-linecap="round" stroke-linejoin="round"/>
<path fill-rule="evenodd" clip-rule="evenodd" d="M10.1144 7.39293C10.1144 5.35204 9.4335 4.67114 7.39261 4.67114C5.35082 4.67114 4.66992 5.35204 4.66992 7.39293C4.66992 9.43472 5.35082 10.1147 7.39261 10.1147C9.4335 10.1147 10.1144 9.43472 10.1144 7.39293Z" stroke="white" stroke-width="1.5" stroke-linecap="round" stroke-linejoin="round"/>
</svg>
