<svg width="24" height="24" viewBox="0 0 24 24" fill="none" xmlns="http://www.w3.org/2000/svg">
<path fill-rule="evenodd" clip-rule="evenodd" d="M2.75 12C2.75 18.937 5.063 21.25 12 21.25C18.937 21.25 21.25 18.937 21.25 12C21.25 5.063 18.937 2.75 12 2.75C5.063 2.75 2.75 5.063 2.75 12Z" stroke="white" stroke-width="1.5" stroke-linecap="round" stroke-linejoin="round"/>
<path fill-rule="evenodd" clip-rule="evenodd" d="M10.5982 8.78419C10.5982 9.75719 9.81017 10.5452 8.83717 10.5452C7.86517 10.5452 7.07617 9.75719 7.07617 8.78419C7.07617 7.81119 7.86517 7.02319 8.83717 7.02319C9.81017 7.02319 10.5982 7.81119 10.5982 8.78419Z" stroke="white" stroke-width="1.5" stroke-linecap="round" stroke-linejoin="round"/>
<path d="M21.1208 14.6664C20.2398 13.7604 18.9938 11.9294 16.7048 11.9294C14.4158 11.9294 14.3658 15.9674 12.0298 15.9674C9.6928 15.9674 8.7518 14.5964 7.2288 15.3124C5.7068 16.0274 4.4668 18.8734 4.4668 18.8734" stroke="white" stroke-width="1.5" stroke-linecap="round" stroke-linejoin="round"/>
</svg>
