<svg width="24" height="24" viewBox="0 0 24 24" fill="none" xmlns="http://www.w3.org/2000/svg">
<path d="M6.07031 16.4588C6.07031 16.4588 6.88231 14.8218 8.06431 14.8218C9.24631 14.8218 9.85031 16.1968 11.1603 16.1968C12.4693 16.1968 13.9383 12.7488 15.4223 12.7488C16.9043 12.7488 17.9703 15.1398 17.9703 15.1398" stroke="white" stroke-width="1.5" stroke-linecap="round" stroke-linejoin="round"/>
<path fill-rule="evenodd" clip-rule="evenodd" d="M10.1384 9.10487C10.1384 9.96487 9.44144 10.6629 8.58044 10.6629C7.72044 10.6629 7.02344 9.96487 7.02344 9.10487C7.02344 8.24487 7.72044 7.54688 8.58044 7.54688C9.44144 7.54788 10.1384 8.24487 10.1384 9.10487Z" stroke="white" stroke-width="1.5" stroke-linecap="round" stroke-linejoin="round"/>
<path fill-rule="evenodd" clip-rule="evenodd" d="M2.75 12C2.75 18.937 5.063 21.25 12 21.25C18.937 21.25 21.25 18.937 21.25 12C21.25 5.063 18.937 2.75 12 2.75C5.063 2.75 2.75 5.063 2.75 12Z" stroke="white" stroke-width="1.5" stroke-linecap="round" stroke-linejoin="round"/>
</svg>
