<svg width="24" height="24" viewBox="0 0 24 24" fill="none" xmlns="http://www.w3.org/2000/svg">
<path d="M12 23.25C16.9125 23.25 21.075 20.1375 22.6125 15.75H1.38751C2.92501 20.1375 7.08751 23.25 12 23.25Z" fill="black"/>
<path d="M12 0.75C7.08751 0.75 2.92501 3.9 1.38751 8.25H22.6125C21.075 3.9 16.9125 0.75 12 0.75Z" fill="#5C9E31"/>
<path d="M22.6125 15.75C23.025 14.5875 23.25 13.3125 23.25 12C23.25 10.6875 23.025 9.4125 22.6125 8.25H1.3875C0.975 9.4125 0.75 10.6875 0.75 12C0.75 13.3125 0.975 14.5875 1.3875 15.75H22.6125Z" fill="#F9F9F9"/>
<path d="M5.25 10.5L6.0225 13L4 11.455H6.5L4.4775 13L5.25 10.5ZM11.5 10.5L12.2725 13L10.25 11.455H12.75L10.7275 13L11.5 10.5ZM17.75 10.5L18.5225 13L16.5 11.455H19L16.9775 13L17.75 10.5Z" fill="#D22F27" stroke="#D22F27" stroke-width="0.416667" stroke-linecap="round" stroke-linejoin="round"/>
</svg>
