<svg width="24" height="24" viewBox="0 0 24 24" fill="none" xmlns="http://www.w3.org/2000/svg">
<path fill-rule="evenodd" clip-rule="evenodd" d="M21.4404 13.9939C18.7794 13.9939 18.7794 9.87952 21.4404 9.87952C21.4404 5.11236 21.4404 3.41089 12.0454 3.41089C2.65039 3.41089 2.65039 5.11236 2.65039 9.87952C5.31139 9.87952 5.31139 13.9939 2.65039 13.9939C2.65039 18.762 2.65039 20.4635 12.0454 20.4635C21.4404 20.4635 21.4404 18.762 21.4404 13.9939Z" stroke="white" stroke-width="1.5" stroke-linecap="round" stroke-linejoin="round"/>
<path fill-rule="evenodd" clip-rule="evenodd" d="M12.0456 9.17114C11.3626 9.17114 11.2976 10.2606 10.8916 10.6462C10.4846 11.0308 9.2216 10.5912 9.0456 11.2743C8.8706 11.9583 10.0076 12.1904 10.1486 12.7768C10.2886 13.3632 9.5946 14.1875 10.1876 14.5986C10.7816 15.0079 11.4206 14.0804 12.0456 14.0804C12.6706 14.0804 13.3096 15.0079 13.9036 14.5986C14.4976 14.1875 13.8026 13.3632 13.9426 12.7768C14.0836 12.1904 15.2206 11.9583 15.0456 11.2743C14.8696 10.5912 13.6066 11.0308 13.1996 10.6462C12.7936 10.2606 12.7286 9.17114 12.0456 9.17114Z" stroke="white" stroke-width="1.5" stroke-linecap="round" stroke-linejoin="round"/>
</svg>
