<svg width="24" height="24" viewBox="0 0 24 24" fill="none" xmlns="http://www.w3.org/2000/svg">
<path d="M19.4355 5.77441C21.9292 9.49441 21.9365 14.4035 19.4355 18.1317" stroke="white" stroke-width="1.5" stroke-linecap="round" stroke-linejoin="round"/>
<path d="M16.9883 8.21729C18.2701 10.54 18.2701 13.3746 16.9883 15.6891" stroke="white" stroke-width="1.5" stroke-linecap="round" stroke-linejoin="round"/>
<path fill-rule="evenodd" clip-rule="evenodd" d="M2.68188 11.953C2.67916 13.1993 2.68188 14.6611 3.71097 15.5348C4.74097 16.4093 5.55734 16.0484 6.88916 16.4866C8.22188 16.9257 10.0882 19.633 12.1501 18.4102C13.2646 17.6184 13.7901 16.1239 13.7901 11.953C13.7901 7.78204 13.2882 6.30386 12.1501 5.49568C10.0882 4.27386 8.22188 6.98113 6.88916 7.41932C5.55734 7.85841 4.74097 7.4975 3.71097 8.37113C2.68188 9.24477 2.67916 10.7066 2.68188 11.953Z" stroke="white" stroke-width="1.5" stroke-linecap="round" stroke-linejoin="round"/>
</svg>
