<svg width="24" height="24" viewBox="0 0 24 24" fill="none" xmlns="http://www.w3.org/2000/svg">
<path d="M18.6543 8.63452C19.9076 10.9056 19.9076 13.6772 18.6543 15.9403" stroke="white" stroke-width="1.5" stroke-linecap="round" stroke-linejoin="round"/>
<path fill-rule="evenodd" clip-rule="evenodd" d="M4.66637 12.2873C4.66282 13.506 4.66637 14.9353 5.6726 15.7896C6.67882 16.6447 7.47793 16.2918 8.78015 16.7202C10.0833 17.1496 11.9082 19.7967 13.9242 18.6011C15.0139 17.8269 15.5277 16.3656 15.5277 12.2873C15.5277 8.20912 15.037 6.76379 13.9242 5.97357C11.9082 4.7789 10.0833 7.42601 8.78015 7.85445C7.47793 8.28379 6.67882 7.9309 5.6726 8.78512C4.66637 9.63934 4.66282 11.0687 4.66637 12.2873Z" stroke="white" stroke-width="1.5" stroke-linecap="round" stroke-linejoin="round"/>
</svg>
