<svg width="24" height="24" viewBox="0 0 24 24" fill="none" xmlns="http://www.w3.org/2000/svg">
<path d="M11.9609 16.5167V13.8887" stroke="white" stroke-width="1.5" stroke-linecap="round" stroke-linejoin="round"/>
<path d="M21.089 11.4775L21.06 11.4985C18.638 12.9905 15.44 13.8915 11.956 13.8915C8.47203 13.8915 5.28303 12.9905 2.86203 11.4985L2.83203 11.4775" stroke="white" stroke-width="1.5" stroke-linecap="round" stroke-linejoin="round"/>
<path fill-rule="evenodd" clip-rule="evenodd" d="M2.75 13.3507C2.75 7.19871 5.053 5.14771 11.961 5.14771C18.87 5.14771 21.172 7.19871 21.172 13.3507C21.172 19.5027 18.87 21.5537 11.961 21.5537C5.053 21.5537 2.75 19.5027 2.75 13.3507Z" stroke="white" stroke-width="1.5" stroke-linecap="round" stroke-linejoin="round"/>
<path d="M15.2242 5.3692V4.7392C15.2242 3.4752 14.3012 2.4502 13.1642 2.4502H10.7592C9.62222 2.4502 8.69922 3.4752 8.69922 4.7392V5.3692" stroke="white" stroke-width="1.5" stroke-linecap="round" stroke-linejoin="round"/>
</svg>
